<svg aria-hidden="true" style="position:absolute;width:0;height:0;overflow:hidden"
    xmlns="http://www.w3.org/2000/svg">
    <defs>
        <symbol id="icon-calendar" viewBox="0 0 32 32">
            <path stroke-linejoin="round" stroke-linecap="round" stroke-width="2.4"
                d="M25.333 5.333H6.666A2.667 2.667 0 0 0 3.999 8v18.667a2.667 2.667 0 0 0 2.667 2.667h18.667A2.667 2.667 0 0 0 28 26.667V8a2.667 2.667 0 0 0-2.667-2.667zM21.333 2.667V8M10.667 2.667V8M4 13.333h24" />
        </symbol>
        <symbol id="icon-auto" viewBox="0 0 32 32">
            <path stroke-linejoin="round" stroke-linecap="round" stroke-width="2.4"
                d="M22.667 14.667h2a2 2 0 0 0 0-4h-2v6.667m0 5.333V28H24a2.668 2.668 0 0 0 0-5.334h-1.333zM4 6.667a2.668 2.668 0 1 0 5.336 0 2.668 2.668 0 0 0-5.336 0z" />
            <path stroke-linejoin="round" stroke-linecap="round" stroke-width="2.4"
                d="M6.667 9.333v4a1.335 1.335 0 0 0 1.334 1.334h4m-.001 0V24a1.33 1.33 0 0 0 1.334 1.333h4M12 14.667h5.333" />
        </symbol>
        <symbol id="icon-route" viewBox="0 0 32 32">
            <path
                d="M6.667 4a2.667 2.667 0 1 0 0 5.334 2.667 2.667 0 0 0 0-5.334zM1.333 6.667a5.333 5.333 0 1 1 10.666 0 5.333 5.333 0 0 1-10.666 0zM25.333 22.667a2.667 2.667 0 1 0 0 5.334 2.667 2.667 0 0 0 0-5.334zM20 25.333a5.333 5.333 0 1 1 10.667 0 5.333 5.333 0 0 1-10.667 0z" />
            <path
                d="M13.333 6.667c0-.736.597-1.333 1.333-1.333h8.4c4.13 0 5.62 5.404 1.987 7.429L9.58 21.567a1.295 1.295 0 0 0 .686 2.434h7.067a1.333 1.333 0 0 1 0 2.666h-7.067c-4.13 0-5.619-5.404-1.987-7.429l15.473-8.804A1.295 1.295 0 0 0 23.066 8h-8.4a1.333 1.333 0 0 1-1.333-1.333z" />
        </symbol>
        <symbol id="icon-adults" viewBox="0 0 32 32">
            <path
                d="M9.067 24.133h-4.4c-.267 0-.4-.133-.533-.267s-.267-.4-.133-.667c.8-2.267 2.8-3.6 5.067-3.6 2.8 0 5.067-2.4 5.067-5.2s-2.267-5.467-5.067-5.467c-2.8 0-5.067 2.4-5.067 5.333a5.69 5.69 0 0 0 1.333 3.6c-1.733.933-3.067 2.4-3.867 4.4-.267.933-.133 2.133.533 3.067s1.6 1.467 2.667 1.467h4.4c.8 0 1.333-.533 1.333-1.333s-.533-1.333-1.333-1.333zm-2.4-9.866c0-1.467 1.067-2.533 2.4-2.533s2.4 1.2 2.4 2.533c0 1.467-1.067 2.533-2.4 2.533s-2.4-1.2-2.4-2.533z" />
            <path
                d="M30.533 21.467c-.933-2.533-2.8-4.4-4.933-5.467 1.2-1.067 1.867-2.667 1.867-4.533C27.467 8 24.8 5.2 21.6 5.2s-5.867 2.8-5.867 6.267A6.35 6.35 0 0 0 17.6 16c-2.133 1.067-4 2.933-4.933 5.467-.667 1.2-.4 2.533.267 3.6s1.867 1.6 3.067 1.6h11.067c1.2 0 2.4-.667 3.067-1.6.8-1.067.933-2.4.4-3.6zM18.267 11.6c0-2 1.467-3.6 3.2-3.6s3.2 1.6 3.2 3.6-1.467 3.6-3.2 3.6-3.2-1.733-3.2-3.6zm9.6 12c-.133.133-.4.533-.8.533H16c-.533 0-.8-.4-.8-.533-.133-.133-.4-.667-.133-1.2 1.067-2.8 3.733-4.667 6.533-4.667s5.467 1.867 6.533 4.667c.133.533-.133 1.067-.267 1.2z" />
        </symbol>
        <symbol id="icon-star" viewBox="0 0 32 32">
            <path stroke-linejoin="miter" stroke-linecap="butt" stroke-miterlimit="4"
                stroke-width="2.4"
                d="M12.4 9.394l3.6-6.822 3.6 6.822c0.318 0.603 0.899 1.025 1.571 1.141l7.601 1.315-5.376 5.532c-0.475 0.489-0.697 1.171-0.6 1.846l1.098 7.635-6.922-3.404c-0.612-0.301-1.329-0.301-1.941 0l-6.922 3.404 1.098-7.635c0.097-0.675-0.125-1.357-0.6-1.846l-5.376-5.532 7.601-1.315c0.672-0.116 1.252-0.538 1.571-1.141z"></path>
        </symbol>
        <symbol id="icon-heart" viewBox="0 0 33 32">
            <path stroke-linejoin="round" stroke-linecap="round" stroke-miterlimit="4"
                stroke-width="3.0667"
                d="M28.453 6.147c-0.681-0.681-1.49-1.222-2.379-1.591s-1.844-0.559-2.807-0.559-1.917 0.19-2.807 0.559c-0.89 0.369-1.699 0.909-2.38 1.591l-1.413 1.413-1.413-1.413c-1.376-1.376-3.241-2.148-5.187-2.148s-3.811 0.773-5.187 2.148c-1.376 1.376-2.148 3.241-2.148 5.187s0.773 3.811 2.148 5.187l11.787 11.787 11.787-11.787c0.681-0.681 1.222-1.49 1.591-2.38s0.559-1.844 0.559-2.807-0.19-1.917-0.559-2.807c-0.369-0.89-0.909-1.699-1.591-2.38z"></path>
        </symbol>
        <symbol id="icon-close" viewBox="0 0 32 32">
            <path stroke-linejoin="round" stroke-linecap="round" stroke-miterlimit="4"
                stroke-width="3" d="M24 8l-16 16"></path>
            <path stroke-linejoin="round" stroke-linecap="round" stroke-miterlimit="4"
                stroke-width="3" d="M8 8l16 16"></path>
        </symbol>
    </defs>
</svg>